<?xml version="1.0" encoding="utf-8"?>
<!-- Generator: Adobe Illustrator 19.0.0, SVG Export Plug-In . SVG Version: 6.00 Build 0)  -->
<svg version="1.1" id="layer" xmlns="http://www.w3.org/2000/svg" xmlns:xlink="http://www.w3.org/1999/xlink" x="0px" y="0px"
	 viewBox="-153 -46 652 652" style="enable-background:new -153 -46 652 652;" xml:space="preserve">
<style type="text/css">
	.st0{fill-rule:evenodd;clip-rule:evenodd;fill:#BB8A2A;}
	.st1{fill-rule:evenodd;clip-rule:evenodd;}
	.st2{fill-rule:evenodd;clip-rule:evenodd;fill:#6B337B;}
	.st3{fill:none;stroke:#6B337B;stroke-width:0.9189;stroke-miterlimit:3.864;}
	.st4{fill-rule:evenodd;clip-rule:evenodd;fill:#FFFFFF;}
	.st5{fill:none;stroke:#1A5F45;stroke-width:0.9189;stroke-miterlimit:3.864;}
	.st6{fill-rule:evenodd;clip-rule:evenodd;fill:#1A5F45;}
	.st7{fill:none;stroke:#1A5F45;stroke-width:2.7804;stroke-miterlimit:3.864;}
</style>
<g>
	<path class="st0" d="M221.3,325.5c0.4,0.2,0.4,0.2,1.1,0c0.6-0.1,0.1,0.3,1.6,0c0.6-0.1,5.6,0,6.3,0c0.2,0,1.5,0,1.7,0.5l0.7-0.4
		c0.3,0,0.4,0,0.8,0c0.2,0.2,0.6,0,0.8,0c0.2,0.2,0.7,0.2,0.8,0.1c1.5,0.1,2.7,0.1,3.1,0.1c0.6,0-0.1,0.3,0.5,0.3
		c0.6,0,0.5-0.3,1.2-0.3c0.7,0,2.4,0.1,3,0.3c0,0,0.8,0.4,0.8,0l1-0.2l0.5,0.3c-0.2,0.4-0.5,0.6,0.1,0.9c-0.1-0.1,0.2-0.4,0.2-0.7
		h2.2l0.5,0.3c0.2-0.1,0.1-0.3,0.8-0.3c0.6,0,1.6,0.7,2.5,1c0.2-0.1,0.7-0.3,1.3-0.6c0.1,0.2,0,0.5,0.3,0.6h1.7
		c0.2-0.1,0.2-0.4,0.6-0.6c0.7,1.3,3.6,0.4,5.4,1.6c0.2,0.3-1.1-0.3-1.4,0.1c-0.2,0.2-0.6-0.3-1.2-0.3c-0.6,0-1.4,0.1-2.3,0.1
		c-0.2,0,0.2,0.7-0.6,0.6c-0.4-0.3,0.5-0.4,0.1-0.7c-0.2-0.1-0.9,0.1-1.1,0c-0.2,0,0.1,0.8-0.1,0.8c-0.7,0-0.3-0.6-0.6-0.5
		c-0.3,0-0.1,0.3-0.3,0.5c-0.6,0.2,0-0.7-1-0.6c-0.2,0-0.4,0.4,0,0.6c0.8-0.1,0.5,0.7,0.2,0.7c-1-0.1-0.5,0.7-0.9,0.7
		c-0.5-0.1-0.1-0.5-0.5-0.8c0-0.3,0.4,0,0.7-0.1l0-0.4c-0.1,0-0.9-0.3-1.3-0.3c-0.2,0.4,0.2,1.2,0.1,1.7c-0.5-0.4-1.1-0.9-1-1.5
		c-0.5,0.1-0.1,0.7-0.9,0.6c-0.5-0.1,0.7-0.6,0-1.2c-0.6-0.1,0,0.2-0.1,0.4c-0.4,0-0.8,0-1-0.1c0,0-0.3-0.2-0.3,0.2
		c0,0.4,0.4,0.1,0.4,0.5c0,0.2-0.3,0.1-0.4,0.3c-0.1,0.2,0.3,0.7-0.2,0.6c-0.4-0.2-0.5-0.5-0.6-0.6c-0.4,0,0.2,0.7-0.7,0.6
		c-0.3,0-0.4-0.1-0.6-0.3c-0.1-0.1,0-0.2,0.7,0c0.4,0,0-0.4,0.1-0.5c0.3-0.1,0.6-0.2,0.8-0.4c-0.2-0.1,0.3-0.3-0.3-0.4
		c-1.1,0-1.5,1.5-2.3,1.6c-0.6-0.1-0.1-1.2-0.3-1.6c-0.7-0.1-0.4,1-0.4,1.5c-0.5,0.2-0.8,0.2-1,0c-0.3-0.1-0.8-0.6-0.9-0.9
		c-0.1,0.1,0.1,0.7,0.1,0.7c-0.6,0.2-1.9,0.1-4.5-0.1c-1.5-0.1-0.7-0.5-1.3-0.7c-0.1,0.2-1.4,0.7-2,0.7c-0.6,0-1.3-0.2-13.4-0.1
		c-0.6,0-1.1-0.1-1.8-0.1c-4.5,0-5.1,0.1-6.2,0.2c-0.4,0-0.9,0.3-1.6,0.3c-0.3,0-0.4-0.2-0.8-0.2c-0.1,0-0.4,0.2-0.5,0.2
		c-0.2,0-0.3-0.2-0.5-0.2c-0.2,0-0.3,0.1-0.5,0.1c-0.3,0-0.7-0.2-1.1-0.2c-0.3,0-0.5,0.4-1.1,0.4c-0.6,0-0.2-0.2-0.8-0.2
		c-0.5,0-0.9,0-1.2,0c-0.2,0-0.5,0.4-0.8,0.4c-0.1,0-0.8-0.3-1-0.2c-0.3,0.1,0,0.2-0.4,0.4l-0.6-0.3c-0.1,0.1-0.2,0.2-0.8,0.2
		c-0.6,0-0.2-0.2-0.9-0.2c-0.6,0-0.6,0.4-1.2,0.4c-0.6,0,0-0.2-0.7-0.2c-0.4,0-0.6,0.3-0.8,0.3c-0.4,0-0.8-0.3-1-0.2
		c-0.2,0.1-0.4,0.3-1,0.4c-0.3,0-1.4-0.3-2-0.3c-0.3,0-0.7,0.6-0.8,0.6c-0.6,0-0.2-0.4-0.9-0.4c-0.6,0-0.5,0.5-1.1,0.5
		c-0.6,0-0.4-0.4-1.1-0.4c-0.3,0-0.2,0.3-0.4,0.4c-0.2,0.1-1.3,0-1.5,0.1c-0.1,0.1,0.2,0.2,0.1,0.3c0.1,0.1,0.8,0,1.5,0
		c0.1,0,0.1,0.1,0.2,0.1c0.1,0,0.3-0.1,0.4-0.1c0.3,0,0.6,0,0.7,0l2.2-0.1l0.5,0l0.2-0.1l1,0c0,0,1-0.2,1.1-0.2c0,0,0.3,0.1,0.9,0.1
		c0.4,0,0.8,0,1.2,0c0,0,0.2,0.1,0.3,0.1c0.1,0,0-0.1,0.1-0.2c0.5,0,1,0,1.5-0.1c0.8-0.2,1.2-0.2,1.2-0.1c-0.3,0.4-0.3,0.6,0,0.8
		c0,0-0.1,0.1,0.6,0.1c0.6,0,0.7-0.1,0.9-0.2c-0.2-0.1-0.5-0.4-0.8-0.6c0.6-0.2,1.5-0.4,2.2-0.4c0.6,0,1.3,0.2,1.9,0.2
		c-0.4,0.9,0.5,0.9,1,0.9c0.6,0,1.2-0.3,2.1-0.2c0.2-0.1,0.4-0.2,0.4-0.3c-0.5-0.1-0.9-0.1-2.5,0c-0.1-0.2-0.3-0.1-0.6-0.4
		c0.9-0.2,1.9-0.2,2.9-0.3l4.7-0.1c1.2-0.1,1.4,0,0.8,0.3c-0.6,0.2-1.4,0.4-2,0.5c-0.8,0.2-0.6,0.4,0.7,0.4c2.1,0.2,3.7,0.2,4.8,0
		c0.6,0,1.9-0.3,2.6-0.3c0.6,0,0.5,0.2,0.8,0.2c-0.9,0.3-0.4,1.1-0.8,1c-0.4-0.2-0.9-0.3-1-0.4c-0.2,0.1-0.5,0.1-0.9,0.1
		c0,0.1,0.3,0.4,0.3,0.6c-0.3,0-0.5,0-0.9,0.2c-0.4-0.2,0-0.9-0.6-0.9c-2,0-3.2,0.3-4.4,1.3c-0.3,0-0.4-0.2-0.6-0.3l-0.5,0.3
		c-0.6-0.3-1.3-0.4-2-0.6c-0.2,0.1-1.2,0.9-2.3,0.9c-0.6,0-0.9-0.3-1-0.4c-0.5,0,0.2,0.4-0.2,0.4c-1,0.2-0.8-0.6-1.1-0.3
		c-0.2,0.4,0.1,1-0.3,1.6c-0.1-0.2-0.1-0.3-0.2-0.4c-0.2,0.1-0.1,0.4-0.2,0.6c-0.8,0.1-1.2,0.1-1.2-0.2c0.8-0.4,0.9-1.1,1.3-1.3
		l-0.4-0.2c-1.9,0.3-0.7,1-1.4,1.7c-0.6-0.2-0.6-0.5-1.2-0.8c0-0.2,0.5-0.2,0.6-0.5v-0.2c0,0-0.3,0.1-0.4,0.3
		c-0.4-0.2-1.6-1.1-1.8-0.7c-0.2,0.1-0.4,0.4-0.5,0.6c-0.3,0-0.6-0.1-2-0.1c-0.4,0,0.4,1.7,0,1.6c-1.6,0-0.7-1-1.9-1.4
		c-0.2,0-0.4,0.2-0.7,0.6c-0.3,0-0.6-0.3-1.2-0.3c-0.6,0-1.9,0.3-2.8,0.4c-0.9,0,0.1,1.4-0.1,1.3c-0.4-0.2-0.4-0.4-0.8-0.6
		c-0.2,0.1,0.1,0.4,0.1,0.6c-0.3,0-0.7-0.2-0.9-0.3c-0.2,0.1-0.1,0.6-0.8,0.6c-0.6,0-1.4-0.2-1.6-0.4c-0.1,0.1-0.1,0.2-0.1,0.4
		c-1.1,0-2.4,0.2-3.4,0l-0.6,0.3c-0.1-0.2-0.2-0.4-0.7-0.6c-0.2,0.1,0.2,0.7-0.4,0.7c-0.6,0-0.1-0.3-0.8-0.3c-2.1,0-20.9,2.2-24,2.5
		c0,0,0.4,0.3-0.3,0.7c-0.3,0.3-0.9,0.1-0.7-0.2c0.5-0.3,0.2-0.5-0.3-0.4c-1.7,0.2-0.5,0.7-0.9,0.8c-0.9,0.1-1-0.5-1.2-0.5
		c-0.3,0.3,0.5,0.7-0.9,0.8c-0.3-0.2-0.2-0.7-0.4-0.8c-0.7,0-1,0.2-1,0.8c-0.3,0.2-0.3,0.4-0.9,0.4c-0.6,0-0.6-0.3-1.2-0.3
		c0,0-0.3,0.4-1.8,0.6c-1.6,0.2-4.4,0.3-5,0.3c-3.6,0-3.5-2.6-3.5-3.5c0-2.5,1.3-7.8,9.3-7.8l3.3-0.1l44.8-3.4l17.8-0.5l0.6,0.1
		l0.7-0.2L221.3,325.5z"/>
	<path class="st1" d="M179.8,261.6v-0.8c0-3.3-0.6-5.6-1.7-7.1c-1.1-1.5-3-2.2-5.7-2.2c-2.8,0-4.9,0.8-6.5,2.5
		c-1.5,1.7-2.3,4.2-2.3,7.6H179.8z M163.4,266.3c0,5.2,0.7,8.9,2.1,11.1c1.4,2.2,4,3.4,7.8,3.4c3.1,0,5.7-0.8,7.8-2.3
		c2.2-1.6,3.7-3.8,4.5-6.6h1.9c-1.7,7.3-6.8,10.9-15.2,10.9c-4.8,0-8.8-1.5-12-4.5c-3.2-3-4.8-6.7-4.8-11.1c0-4.8,1.6-8.9,4.9-12.2
		c3.3-3.3,7.4-5,12.2-5c4.4,0,8,1.2,10.6,3.6c2.7,2.3,4.2,5.7,4.6,10.3h-24.2V266.3z"/>
	<path class="st1" d="M225.5,282.9c-2.9,0-5.3-0.7-7-2c-1.7-1.4-2.5-3.1-2.5-5.3c0-3.6,1.8-6.5,5.5-8.6c3.7-2.1,9.1-3.2,15.9-3.2
		v-7.7c0-3-2.3-4.6-6.8-4.6c-2,0-3.6,0.3-4.9,1c-1.3,0.6-2,1.2-2,1.8c0.6,0.5,1.1,1.1,1.6,1.7c0.5,0.6,0.8,1.3,0.8,2
		c0,1-0.3,1.9-1,2.5c-0.6,0.6-1.4,0.9-2.4,0.9c-2.4,0-3.6-1.3-3.6-3.8c0-2.2,1.2-4,3.6-5.5c2.5-1.5,5.8-2.2,9.9-2.2
		c4.4,0,7.5,0.6,9.1,1.9c1.6,1.3,2.4,3.5,2.4,6.7v17.8c0,1.1,0.1,1.9,0.3,2.4c0.2,0.4,0.7,0.6,1.5,0.6c1.6,0,2.6-1,3-3l1.4,0.2
		c-0.2,1.9-0.9,3.4-2.2,4.6c-1.3,1.1-2.9,1.6-4.8,1.6c-3.3,0-5.2-1.7-5.5-5.2c-1,1.6-2.7,2.9-4.9,3.8
		C230.5,282.4,228.1,282.9,225.5,282.9 M222.6,273.6c0,1.8,0.6,3.3,1.7,4.4c1.2,1.1,2.7,1.7,4.8,1.7c2.4,0,4.4-0.6,6-1.7
		c1.6-1.1,2.4-2.7,2.4-4.7v-7.7c-4.8,0-8.5,0.7-11.1,2C223.8,269,222.6,271,222.6,273.6"/>
	<polygon class="st1" points="68.1,279.9 74.3,279.9 74.3,230.4 68.1,230.4 68.1,228.4 85.2,228.4 97.2,268 110,228.4 126.7,228.4 
		126.7,230.4 120.1,230.4 120.1,279.9 126.7,279.9 126.7,281.9 105.5,281.9 105.5,279.9 111.9,279.9 111.9,231.2 111.6,231.2 
		95.1,281.9 93,281.9 77.7,231.2 77,231.2 77,279.9 83.4,279.9 83.4,281.9 68.1,281.9 	"/>
	<path class="st1" d="M146.5,261.6v-0.8c0-3.3-0.6-5.6-1.7-7.1c-1.1-1.5-3-2.2-5.7-2.2c-2.8,0-4.9,0.8-6.5,2.5
		c-1.5,1.7-2.2,4.2-2.2,7.6H146.5z M130.1,266.3c0,5.2,0.7,8.9,2.1,11.1c1.4,2.2,4,3.4,7.8,3.4c3.1,0,5.7-0.8,7.8-2.3
		c2.2-1.6,3.7-3.8,4.5-6.6h1.9c-1.7,7.3-6.8,10.9-15.2,10.9c-4.8,0-8.8-1.5-12-4.5c-3.2-3-4.8-6.7-4.8-11.1c0-4.8,1.6-8.9,4.9-12.2
		c3.3-3.3,7.4-5,12.2-5c4.4,0,8,1.2,10.6,3.6c2.7,2.3,4.2,5.7,4.6,10.3h-24.2V266.3z"/>
	<path class="st1" d="M187.1,280.5l20-27.9h-8.3c-4.2,0-6.6,2.9-7.4,8.7h-2.1l0.5-10.4h25.1v1.9L195,280.1h9.2
		c4.6,0,7.5-3.2,8.7-9.6h1.9l-0.5,11.5h-27.2V280.5z"/>
	<path class="st1" d="M250.9,280.1h4.7v-27.5h-4.7v-1.7h1.6c3.5,0,6.7-0.2,9.7-0.7v9c2.5-6.1,6.8-9.1,12.8-9.1c2.9,0,5.3,0.8,7,2.3
		c1.7,1.5,2.6,3.7,2.6,6.4v21.4h4.5v1.9h-16v-1.9h4.9v-21.6c0-4-1.8-6-5.4-6c-2.8,0-5.2,1.3-7.3,3.9c-2,2.6-3,5.8-3,9.6v14.1h4.6
		v1.9h-16V280.1z"/>
	<path class="st1" d="M313.2,279.9h6.2v-49.4h-6.2v-2H335c13.5,0,20.2,4.1,20.2,12.4c0,3.3-1.2,6.1-3.6,8.3
		c-2.4,2.2-5.8,3.6-10.3,4.3v0.3c5,0.8,8.8,2.4,11.6,4.9c2.8,2.4,4.2,5.3,4.2,8.6c0,4.6-1.9,8.2-5.8,10.8c-3.9,2.6-9.4,3.8-16.7,3.8
		h-21.5V279.9z M334.3,252.8c4.8,0,8-0.8,9.7-2.5c1.7-1.7,2.5-4.8,2.5-9.2c0-4.2-0.9-7-2.8-8.4c-1.8-1.5-5-2.2-9.8-2.2h-6.1v22.3
		H334.3z M327.9,279.9h7.5c4.8,0,8-0.8,9.7-2.5c1.7-1.7,2.6-5,2.6-9.7c0-4.7-1-8-2.9-9.9c-2-2-5.3-2.9-10.1-2.9h-6.8V279.9z"/>
	<path class="st1" d="M366.5,282.9c-2.9,0-5.3-0.7-7-2c-1.7-1.4-2.5-3.1-2.5-5.3c0-3.6,1.9-6.5,5.5-8.6c3.7-2.1,9.1-3.2,15.9-3.2
		v-7.7c0-3-2.3-4.6-6.8-4.6c-2,0-3.6,0.3-4.9,1c-1.3,0.6-2,1.2-2,1.8c0.6,0.5,1.1,1.1,1.6,1.7c0.5,0.6,0.8,1.3,0.8,2
		c0,1-0.4,1.9-1,2.5c-0.6,0.6-1.4,0.9-2.4,0.9c-2.4,0-3.6-1.3-3.6-3.8c0-2.2,1.2-4,3.6-5.5c2.5-1.5,5.8-2.2,10-2.2
		c4.4,0,7.5,0.6,9.1,1.9c1.6,1.3,2.4,3.5,2.4,6.7v17.8c0,1.1,0.1,1.9,0.3,2.4c0.2,0.4,0.7,0.6,1.5,0.6c1.6,0,2.6-1,3-3l1.4,0.2
		c-0.2,1.9-0.9,3.4-2.2,4.6c-1.3,1.1-2.9,1.6-4.8,1.6c-3.3,0-5.2-1.7-5.5-5.2c-1,1.6-2.7,2.9-4.9,3.8
		C371.4,282.4,369.1,282.9,366.5,282.9 M363.5,273.6c0,1.8,0.6,3.3,1.7,4.4c1.2,1.1,2.7,1.7,4.8,1.7c2.4,0,4.4-0.6,6-1.7
		c1.6-1.1,2.4-2.7,2.4-4.7v-7.7c-4.8,0-8.5,0.7-11.1,2C364.8,269,363.5,271,363.5,273.6"/>
	<path class="st1" d="M391.6,280.1h4.7v-27.5h-4.7v-1.7h1.5c3.5,0,6.8-0.2,9.7-0.7v9c2.5-6.1,6.8-9.1,12.8-9.1c2.9,0,5.3,0.8,7,2.3
		c1.7,1.5,2.6,3.7,2.6,6.4v21.4h4.5v1.9h-16v-1.9h4.9v-21.6c0-4-1.8-6-5.4-6c-2.8,0-5.2,1.3-7.3,3.9c-2,2.6-3,5.8-3,9.6v14.1h4.6
		v1.9h-16V280.1z"/>
	<path class="st1" d="M436.3,230h-4.5v-1.6l11.3-0.8v52.5h4.8v1.9h-16.3v-1.9h4.8V230z M458,252.6h-5.7v-1.8h14.2v1.8h-5.4
		l-11.8,9.3l16.4,18.2h3.5v1.9h-16.4v-1.9h4.4l-13.9-16L458,252.6z"/>
	<path class="st1" d="M125,311.3c-0.4,1.6-1.1,2.9-2.3,3.8c-1.1,0.9-2.5,1.3-4.1,1.3c-2.2,0-4.1-0.8-5.6-2.3
		c-1.5-1.6-2.3-3.5-2.3-5.9c0-2.4,0.8-4.3,2.5-5.8c1.6-1.5,3.4-2.2,5.2-2.2c1.9,0,3.5,0.7,4.8,2.1c1.3,1.4,2,3.3,2,5.6h-11l-0.1,1.7
		c0,2.2,0.4,3.7,1.1,4.7c0.8,1,2,1.5,3.7,1.5c1.3,0,2.4-0.4,3.4-1.2c1-0.8,1.7-1.9,2-3.4H125z M121.8,307.3l0-1.7
		c0-1.8-0.2-3-0.7-3.8c-0.5-0.7-1.4-1.1-2.8-1.1c-1.4,0-2.5,0.5-3.1,1.6c-0.7,1.1-1,2.7-1,5H121.8z"/>
	<path class="st1" d="M73.6,315.4h4v-22.1l-0.6,0c-2.4,0-4.2,0.8-5.5,2.2c-1.3,1.5-1.9,3.8-1.9,6.8h-0.5v-9.6h20.7v9.6h-0.5
		c-0.4-3.4-1.2-5.7-2.3-7c-1.2-1.3-3.1-2-5.9-2l-0.1,22.1h4v0.6H73.6V315.4z"/>
	<path class="st1" d="M102.9,301c-1.4,0-2.6,0.7-3.6,2c-1,1.3-1.5,3.1-1.5,5.2v7.2h2.8v0.5h-8.8v-0.5h2.9v-22.3h-2.9v-0.6h5.9v12.1
		c0.4-1.4,1.2-2.5,2.2-3.3c1.1-0.8,2.3-1.2,3.6-1.2c1.5,0,2.6,0.4,3.5,1.3s1.3,2.2,1.3,3.8v10.2h2.8v0.5h-8.8v-0.5h2.9v-11.3
		C105.5,302.1,104.6,301,102.9,301"/>
	<path class="st1" d="M152.6,315.4v0.6h-11.5v-0.6h4v-22.1h-4v-0.6h12.2c2.7,0,4.9,0.6,6.5,1.8c1.7,1.2,2.5,2.7,2.5,4.6
		c0,3.7-3.1,5.6-9.3,5.6h-4.4v10.7H152.6z M152.5,304c2.6,0,4.2-0.3,4.9-1c0.7-0.7,1.1-2.2,1.1-4.6c0-1.9-0.3-3.3-1-4
		c-0.7-0.8-2.1-1.2-4.4-1.2h-4.5V304H152.5z"/>
	<path class="st1" d="M191.9,311.3c-0.4,1.6-1.1,2.9-2.3,3.8c-1.1,0.9-2.5,1.3-4.1,1.3c-2.2,0-4.1-0.8-5.6-2.3
		c-1.5-1.6-2.3-3.5-2.3-5.9c0-2.4,0.8-4.3,2.5-5.8c1.7-1.5,3.4-2.2,5.2-2.2c1.9,0,3.5,0.7,4.8,2.1c1.3,1.4,2,3.3,2,5.6h-11l-0.1,1.7
		c0,2.2,0.4,3.7,1.1,4.7c0.8,1,2,1.5,3.7,1.5c1.3,0,2.4-0.4,3.4-1.2c1-0.8,1.7-1.9,2-3.4H191.9z M188.7,307.3l0-1.7
		c0-1.8-0.2-3-0.7-3.8c-0.5-0.7-1.4-1.1-2.8-1.1c-1.4,0-2.5,0.5-3.1,1.6c-0.7,1.1-1,2.7-1,5H188.7z"/>
	<path class="st1" d="M230.5,315.5v0.5h-8.8v-0.5h2.8v-14.4h-2.8v-0.5h5.9v14.9H230.5z M226.3,293.2c0.6,0,1,0.2,1.4,0.5
		c0.4,0.3,0.6,0.6,0.6,1.1c0,0.4-0.2,0.8-0.6,1.1c-0.4,0.3-0.9,0.5-1.4,0.5c-0.5,0-1-0.2-1.4-0.5c-0.4-0.3-0.6-0.7-0.6-1.1
		c0-0.5,0.2-0.8,0.5-1.1C225.2,293.4,225.7,293.2,226.3,293.2"/>
	<path class="st1" d="M244.1,311.3c-0.3,1.6-1.1,2.9-2.3,3.8c-1.1,0.9-2.5,1.3-4.1,1.3c-2.2,0-4.1-0.8-5.7-2.3
		c-1.5-1.6-2.3-3.5-2.3-5.9c0-2.4,0.8-4.3,2.5-5.8c1.6-1.5,3.4-2.2,5.2-2.2c1.9,0,3.5,0.7,4.8,2.1c1.3,1.4,2,3.3,2,5.6h-11l-0.1,1.7
		c0,2.2,0.4,3.7,1.1,4.7c0.8,1,2,1.5,3.8,1.5c1.3,0,2.4-0.4,3.4-1.2c1-0.8,1.7-1.9,2-3.4H244.1z M240.9,307.3l0-1.7
		c0-1.8-0.2-3-0.7-3.8c-0.5-0.7-1.4-1.1-2.8-1.1c-1.4,0-2.5,0.5-3.1,1.6c-0.7,1.1-1,2.7-1,5H240.9z"/>
	<path class="st1" d="M174.9,300.2c0.8,0,1.4,0.2,1.9,0.7c0.6,0.4,0.8,1,0.8,1.7c0,0.5-0.2,0.8-0.5,1.2c-0.3,0.3-0.8,0.4-1.4,0.4
		c-0.5,0-0.9-0.1-1.2-0.4c-0.3-0.3-0.5-0.6-0.5-1c0-0.4,0.1-0.7,0.4-1c0.3-0.3,0.7-0.4,1.2-0.4c0.4,0,0.8,0.1,1.2,0.4
		c-0.4-0.7-1.2-1.1-2.2-1.1c-1.2,0-2.3,0.7-3.2,2.1c-0.9,1.4-1.4,3.2-1.4,5.4v7.3h2.9v0.5h-8.8v-0.5h2.8v-14.4h-2.8v-0.5h5.7
		l0.2,3.8C171.1,301.6,172.7,300.2,174.9,300.2"/>
	<path class="st1" d="M211.1,316h-8.8v-0.5h2.8v-11.3c0-2.1-0.8-3.2-2.4-3.2c-1.3,0-2.4,0.7-3.3,2c-0.9,1.3-1.4,3.1-1.4,5.2v7.2h2.9
		v0.5h-8.8v-0.5h2.8v-14.4h-2.8v-0.5h5.7l0.2,4c0.5-1.4,1.2-2.5,2.1-3.2c1-0.8,2-1.1,3.3-1.1c1.2,0,2.2,0.4,3.1,1.2
		c0.9,0.8,1.4,1.9,1.6,3.2c0.5-1.4,1.2-2.5,2.1-3.3c1-0.8,2.1-1.2,3.3-1.2c1.5,0,2.6,0.4,3.5,1.3c0.8,0.9,1.3,2.1,1.3,3.8v10.2h2.9
		v0.5h-8.8v-0.5h2.9v-11.3c0-2.1-0.8-3.2-2.4-3.2c-1.3,0-2.3,0.7-3.3,2c-0.9,1.3-1.4,3.1-1.4,5.3v7.2h2.8V316z"/>
	<path class="st1" d="M255.3,300.2c0.8,0,1.4,0.2,1.9,0.7c0.5,0.4,0.8,1,0.8,1.7c0,0.5-0.2,0.8-0.5,1.2c-0.3,0.3-0.8,0.4-1.4,0.4
		c-0.5,0-0.9-0.1-1.2-0.4c-0.3-0.3-0.4-0.6-0.4-1c0-0.4,0.1-0.7,0.4-1c0.3-0.3,0.7-0.4,1.2-0.4c0.4,0,0.9,0.1,1.2,0.4
		c-0.4-0.7-1.2-1.1-2.2-1.1c-1.2,0-2.3,0.7-3.2,2.1c-0.9,1.4-1.4,3.2-1.4,5.4v7.3h2.9v0.5h-8.8v-0.5h2.8v-14.4h-2.8v-0.5h5.7
		l0.2,3.8C251.4,301.6,253,300.2,255.3,300.2"/>
	<path class="st1" d="M311.3,308.2c-0.7,0.2-1.2,0.6-1.4,1.2c-0.2,0.6-0.3,1.6-0.3,2.9c0,1.2,0.1,2.1,0.4,2.6
		c0.3,0.5,0.8,0.8,1.6,0.8c1.1,0,2.1-0.5,3-1.5c0.9-1,1.4-2.3,1.4-3.9V307c-0.5,0.3-1.2,0.5-2,0.7
		C313.1,307.8,312.2,308,311.3,308.2 M311.2,316.4c-1.5,0-2.6-0.4-3.5-1.2c-0.8-0.8-1.2-1.8-1.2-3.2c0-2.3,1.1-3.6,3.4-4.1
		c2.3-0.5,3.7-0.7,4.2-0.8c0.5-0.1,1.1-0.3,1.8-0.7v-3c0-1.7-1.1-2.6-3.3-2.6c-1.8,0-3,0.6-3.7,1.8c0.3-0.1,0.5-0.2,0.7-0.2
		c0.4,0,0.8,0.1,1.1,0.4c0.3,0.2,0.5,0.5,0.5,0.9c0,0.4-0.2,0.8-0.5,1c-0.3,0.3-0.8,0.4-1.4,0.4c-0.5,0-0.9-0.2-1.3-0.5
		c-0.3-0.3-0.5-0.7-0.5-1.3c0-0.9,0.6-1.7,1.7-2.3c1.1-0.7,2.5-1,4.3-1c1.7,0,3,0.4,4,1.2c1,0.8,1.5,1.9,1.5,3.4v9.4
		c0,1,0.4,1.5,1.1,1.5c0.5,0,1-0.3,1.3-0.8c0.4-0.5,0.5-1.2,0.5-2.2h0.7c0,2.4-1,3.6-3.1,3.6c-1,0-1.8-0.3-2.5-0.9
		c-0.6-0.6-0.9-1.4-0.9-2.4v-0.2c-0.6,1.2-1.4,2-2.2,2.6C313.2,316.1,312.2,316.4,311.2,316.4"/>
	<path class="st1" d="M361.4,315.5v0.5h-8.8v-0.5h2.8v-14.4h-2.8v-0.5h5.9v14.9H361.4z M357.1,293.2c0.6,0,1,0.2,1.4,0.5
		c0.4,0.3,0.6,0.6,0.6,1.1c0,0.4-0.2,0.8-0.6,1.1c-0.4,0.3-0.9,0.5-1.4,0.5c-0.5,0-1-0.2-1.3-0.5c-0.4-0.3-0.6-0.7-0.6-1.1
		c0-0.5,0.2-0.8,0.5-1.1C356.1,293.4,356.6,293.2,357.1,293.2"/>
	<polygon class="st1" points="284.6,315.4 284.6,316 273.1,316 273.1,315.4 277.1,315.4 277.1,293.3 273.1,293.3 273.1,292.6 
		284.6,292.6 284.6,293.3 280.6,293.3 280.6,315.4 	"/>
	<path class="st1" d="M292.7,315.8c1.1,0,1.9-0.3,2.6-0.9c0.7-0.6,1-1.3,1-2.1c0-1-0.4-1.7-1.2-2.2c-0.8-0.6-2.2-1.2-4.2-2
		c-2-0.8-3.3-1.5-4.1-2c-0.7-0.6-1.1-1.4-1.1-2.5c0-1.1,0.5-2.1,1.4-2.8c0.9-0.7,2.1-1.1,3.4-1.1c1.5,0,2.9,0.6,4.3,1.8l2.2-1.4
		l0.1,5.7h-0.5c-0.5-1.7-1.3-3.1-2.4-4.1c-1.1-1-2.4-1.5-3.7-1.5c-0.8,0-1.5,0.2-2,0.6c-0.5,0.4-0.8,0.9-0.8,1.5
		c0,0.8,0.3,1.5,1,1.9c0.6,0.4,1.9,1,3.8,1.8c1.9,0.8,3.3,1.5,4.2,2.3c0.9,0.8,1.4,1.7,1.4,3c0,1.4-0.5,2.5-1.6,3.4
		c-1,0.9-2.3,1.3-3.9,1.3c-1.9,0-3.6-0.7-5-2.1l-1.9,1.8h-0.5v-6.4h0.5c0.6,2,1.5,3.5,2.7,4.6C289.8,315.3,291.2,315.8,292.7,315.8"
		/>
	<polygon class="st1" points="297.6,293.2 297.6,292.6 303.6,292.6 303.6,315.5 306.4,315.5 306.4,316 297.6,316 297.6,315.5 
		300.5,315.5 300.5,293.2 	"/>
	<path class="st1" d="M341.6,316h-8.8v-0.5h2.8v-11.3c0-2.1-0.8-3.2-2.3-3.2c-1.3,0-2.4,0.7-3.3,2c-0.9,1.3-1.4,3.1-1.4,5.2v7.2h2.9
		v0.5h-8.8v-0.5h2.8v-14.4h-2.8v-0.5h5.7l0.2,4c0.5-1.4,1.2-2.5,2.1-3.2c1-0.8,2-1.1,3.3-1.1c1.2,0,2.2,0.4,3.1,1.2
		c0.9,0.8,1.4,1.9,1.6,3.2c0.5-1.4,1.2-2.5,2.1-3.3c1-0.8,2.1-1.2,3.3-1.2c1.5,0,2.6,0.4,3.5,1.3c0.8,0.9,1.3,2.1,1.3,3.8v10.2h2.8
		v0.5h-8.8v-0.5h2.9v-11.3c0-2.1-0.8-3.2-2.4-3.2c-1.3,0-2.3,0.7-3.3,2c-0.9,1.3-1.4,3.1-1.4,5.3v7.2h2.8V316z"/>
	<path class="st1" d="M368,316.4c-2,0-3.8-0.8-5.4-2.3c-1.5-1.6-2.3-3.5-2.3-5.7c0-2.6,0.9-4.6,2.6-6c1.8-1.4,3.6-2.1,5.4-2.1
		c1.4,0,2.5,0.4,3.4,1.1c0.9,0.8,1.4,1.7,1.4,2.8c0,1.4-0.7,2-2.1,2c-0.6,0-1-0.1-1.4-0.4c-0.4-0.3-0.5-0.7-0.5-1.1
		c0-0.4,0.2-0.8,0.5-1.1c0.4-0.3,0.8-0.5,1.4-0.5c0.5,0,1,0.2,1.5,0.6c-0.2-0.9-0.7-1.7-1.4-2.2c-0.7-0.5-1.6-0.8-2.7-0.8
		c-1.9,0-3.1,0.6-3.7,1.9c-0.6,1.2-0.9,3.4-0.9,6.4c0,2.4,0.3,4.2,0.9,5.3c0.6,1.1,1.7,1.6,3.4,1.6c1.6,0,3-0.5,4.1-1.5
		c1.1-1,1.6-2.4,1.6-4.2h0.7c0,1.9-0.6,3.5-1.9,4.6C371.5,315.8,369.9,316.4,368,316.4"/>
	<path class="st1" d="M390.4,315.4h4v-22.1h-4v-0.6h13.2c2.2,0,4,0.5,5.4,1.5c1.4,1,2.1,2.3,2.1,3.8c0,1.5-0.7,2.7-2,3.7
		c-1.3,1-3.2,1.6-5.6,1.8c5.8,0.5,8.7,2.5,8.7,6c0,2.1-0.8,3.7-2.5,4.8c-1.6,1.1-4,1.7-7.1,1.7h-12.2V315.4z M397.8,303.1h4
		c1.9,0,3.4-0.4,4.3-1.1c0.9-0.8,1.4-2,1.4-3.6c0-1.8-0.4-3.2-1.2-4c-0.8-0.8-2.2-1.2-4.2-1.2h-4.3V303.1z M401.9,315.4
		c2.3,0,3.9-0.5,5-1.5c1-1,1.6-2.7,1.6-4.9c0-1.8-0.5-3.1-1.6-4c-1.1-0.9-2.8-1.3-5.1-1.3h-3.9v11.7H401.9z"/>
	<path class="st1" d="M417.8,308.2c-0.7,0.2-1.2,0.6-1.4,1.2c-0.2,0.6-0.3,1.6-0.3,2.9c0,1.2,0.1,2.1,0.4,2.6
		c0.3,0.5,0.8,0.8,1.6,0.8c1.1,0,2.1-0.5,3-1.5c0.9-1,1.4-2.3,1.4-3.9V307c-0.5,0.3-1.2,0.5-2,0.7
		C419.6,307.8,418.8,308,417.8,308.2 M417.7,316.4c-1.5,0-2.6-0.4-3.5-1.2c-0.8-0.8-1.2-1.8-1.2-3.2c0-2.3,1.1-3.6,3.4-4.1
		c2.3-0.5,3.7-0.7,4.3-0.8c0.5-0.1,1.1-0.3,1.8-0.7v-3c0-1.7-1.1-2.6-3.3-2.6c-1.8,0-3,0.6-3.7,1.8c0.3-0.1,0.5-0.2,0.7-0.2
		c0.4,0,0.8,0.1,1.1,0.4c0.3,0.2,0.5,0.5,0.5,0.9c0,0.4-0.2,0.8-0.5,1c-0.3,0.3-0.8,0.4-1.4,0.4c-0.5,0-0.9-0.2-1.3-0.5
		c-0.3-0.3-0.5-0.7-0.5-1.3c0-0.9,0.6-1.7,1.6-2.3c1.1-0.7,2.6-1,4.3-1c1.7,0,3,0.4,4,1.2c1,0.8,1.5,1.9,1.5,3.4v9.4
		c0,1,0.4,1.5,1.1,1.5c0.5,0,0.9-0.3,1.3-0.8c0.4-0.5,0.5-1.2,0.5-2.2h0.7c0,2.4-1,3.6-3.1,3.6c-1,0-1.8-0.3-2.5-0.9
		c-0.6-0.6-0.9-1.4-0.9-2.4v-0.2c-0.6,1.2-1.4,2-2.2,2.6C419.7,316.1,418.8,316.4,417.7,316.4"/>
	<path class="st1" d="M440.4,301c-1.4,0-2.6,0.7-3.6,2c-1,1.3-1.5,3.1-1.5,5.2v7.2h2.9v0.5h-8.8v-0.5h2.8v-14.4h-2.8v-0.5h5.7
		l0.2,4.2c0.4-1.4,1.2-2.5,2.2-3.3c1.1-0.8,2.3-1.2,3.7-1.2c1.4,0,2.6,0.4,3.5,1.3c0.9,0.9,1.3,2.2,1.3,3.8v10.2h2.8v0.5h-8.8v-0.5
		h2.8v-11.3C442.9,302.1,442.1,301,440.4,301"/>
	<path class="st1" d="M449.5,293.2v-0.6h5.9v16.3l5.4-5.2c0.4-0.4,0.6-0.8,0.6-1.2c0-1-0.8-1.5-2.5-1.5l-0.1-0.5h7.9v0.5
		c-1.3,0-2.9,0.8-4.6,2.4l-2.4,2.3l6.3,9.7h2.1v0.5h-7.8v-0.5h2.4l-5.1-7.8l-2.1,1.9v5.8h2.8v0.5h-8.8v-0.5h2.9v-22.3H449.5z"/>
	<path class="st2" d="M-126.2,275.4c0-45.8,37.1-82.9,82.9-82.9s82.9,37.1,82.9,82.9c0,45.8-37.1,82.9-82.9,82.9
		S-126.2,321.2-126.2,275.4"/>
	<path class="st3" d="M-126.2,275.4c0-45.8,37.1-82.9,82.9-82.9s82.9,37.1,82.9,82.9c0,45.8-37.1,82.9-82.9,82.9
		S-126.2,321.2-126.2,275.4z"/>
	<path class="st4" d="M-96.8,275.4c0-29.6,24-53.6,53.6-53.6c29.6,0,53.6,24,53.6,53.6c0,29.6-24,53.6-53.6,53.6
		C-72.8,328.9-96.8,305-96.8,275.4"/>
	<path class="st3" d="M-96.8,275.4c0-29.6,24-53.6,53.6-53.6c29.6,0,53.6,24,53.6,53.6c0,29.6-24,53.6-53.6,53.6
		C-72.8,328.9-96.8,305-96.8,275.4z"/>
	<path class="st5" d="M-93.6,275.4c0-27.8,22.6-50.4,50.4-50.4c27.8,0,50.4,22.6,50.4,50.4c0,27.8-22.6,50.4-50.4,50.4
		C-71.1,325.8-93.6,303.2-93.6,275.4z"/>
	<polygon class="st6" points="-76.8,303.8 -81.2,293.4 -68.9,270.3 -64.8,270.3 -59.5,270.3 -55.3,270.3 -43.1,293.4 -47.5,303.8 	
		"/>
	<polygon class="st6" points="-52,233.4 -67.7,265.3 -53.8,265.3 -42.9,244.2 -32,265.3 -18.1,265.3 -33.8,233.4 	"/>
	<polygon class="st6" points="-38.3,303.8 -42.7,293.4 -30.5,270.3 -26.3,270.3 -21,270.3 -16.8,270.3 -4.6,293.4 -9,303.8 	"/>
	<path class="st4" d="M4.8,228.4l2.7-8l-7.7,3.5L4.8,228.4z M-12.6,223.8l1.6-1.8l1.5,1.3l17.2-6.9l4.2,3.8L6.7,238l1.5,1.3
		l-1.6,1.8l-7.5-6.7l1.6-1.8l2.2,2l1.1-3.6l-6.8-6.2l-3.5,1.5l2.2,2l-1.6,1.8L-12.6,223.8z"/>
	<polygon class="st4" points="8.4,244.3 10.7,243.5 11.6,246.2 25,241.4 24.1,238.6 26.3,237.8 29.5,246.5 18.5,260.2 30.4,256 
		29.4,253.2 31.6,252.4 35,261.6 32.7,262.4 31.8,259.9 16.1,265.6 14,259.8 25.3,245.7 13.1,250.1 14,252.7 11.7,253.5 	"/>
	<polygon class="st4" points="-36.9,216.8 -36.2,213.9 -19.6,203.8 -28.8,201.6 -29.7,205.3 -33.5,204.3 -32,198.4 -13.7,202.9 
		-14.4,205.8 -31.2,215.8 -21.2,218.3 -20.2,214.5 -16.4,215.4 -17.9,221.5 	"/>
	<polygon class="st4" points="-63.4,220 -63.8,217.7 -61,217.2 -63.5,203.1 -66.3,203.6 -66.7,201.3 -46.6,197.7 -45.5,203.5 
		-49.3,204.1 -49.9,200.8 -58.8,202.3 -57.8,208 -54.2,207.4 -54.7,205 -51.4,204.4 -50.2,211.5 -53.4,212.1 -53.8,209.8 
		-57.4,210.4 -56.3,216.4 -47.4,214.8 -48.1,211.2 -44.3,210.5 -43.3,216.5 	"/>
	<polygon class="st4" points="-85.7,234.7 -87.1,232.7 -84.8,231 -93.2,219.5 -95.5,221.2 -96.9,219.3 -80.4,207.2 -76.9,211.9 
		-80,214.2 -82,211.4 -89.4,216.7 -86,221.4 -83,219.3 -84.5,217.3 -81.8,215.3 -77.6,221.2 -80.2,223.2 -81.6,221.2 -84.6,223.3 
		-81,228.3 -73.7,222.9 -75.8,220 -72.7,217.7 -69.2,222.6 	"/>
	<polygon class="st4" points="-89.6,237.9 -93.7,246.9 -95.9,245.9 -94.8,243.5 -107.7,237.5 -95.3,250.3 -97.2,254.2 -114.8,252.8 
		-101.9,258.8 -100.9,256.6 -98.7,257.6 -102.6,266 -104.8,265 -103.6,262.5 -116.6,256.4 -117.7,259 -119.9,257.9 -115.6,248.7 
		-100,250.3 -111.2,239.3 -106.8,229.9 -104.6,230.9 -105.8,233.4 -92.9,239.4 -91.7,236.9 	"/>
	<path class="st4" d="M-77.5,323c1.2,1,2.1,1.7,2.5,2.3c0.5,0.6,0.9,1.3,1.1,2c0.3,0.7,0.3,1.4,0.2,2.2c-0.1,0.8-0.4,1.4-0.9,2
		c-1.5,2-3.7,2.1-6.5,0.4c1.3,1,2,2.2,2.2,3.5c0.2,1.4-0.1,2.5-0.9,3.6c-0.6,0.7-1.3,1.2-2.3,1.5c-0.9,0.2-1.9,0.2-2.8,0
		c-0.9-0.3-1.8-0.7-2.7-1.2c-0.8-0.6-1.8-1.3-2.9-2.1l-8.6-6.8l1.5-1.9l2.2,1.8l8.8-11.2l-2.2-1.7l1.5-1.9L-77.5,323z M-82.8,321.9
		l-3.5,4.5l2.2,1.7c0.7,0.6,1.3,1,1.8,1.3c0.5,0.3,1,0.5,1.4,0.5c0.5,0,0.9-0.1,1.4-0.3c0.5-0.2,0.8-0.4,1.1-0.8
		c0.4-0.5,0.6-1,0.6-1.5c0.1-0.5,0-1-0.3-1.4c-0.3-0.4-0.6-0.8-1-1.1c-0.4-0.4-0.8-0.7-1.2-1l-0.9-0.7L-82.8,321.9z M-89.1,335.1
		c0.8,0.7,1.5,1.1,1.9,1.3c0.5,0.2,0.9,0.4,1.5,0.4c0.5,0.1,1,0,1.4-0.2c0.4-0.2,0.8-0.5,1.1-0.9c0.7-0.9,0.9-1.7,0.5-2.5
		c-0.3-0.8-0.7-1.3-1-1.6c-0.3-0.3-0.8-0.7-1.4-1.2l-0.3-0.3l-2.5-1.9l-3.8,4.8L-89.1,335.1z"/>
	<path class="st4" d="M-60.2,342l-1-8.4l-5.5,6.4L-60.2,342z M-77.9,345.2l0.7-2.3l1.9,0.6l12.6-13.5l5.4,1.7l2.8,18.3l1.9,0.6
		l-0.7,2.3l-9.6-2.9l0.7-2.3l2.8,0.9l-0.5-3.7l-8.8-2.7l-2.5,2.8l2.9,0.9l-0.7,2.3L-77.9,345.2z"/>
	<polygon class="st4" points="-45.3,353.1 -45.6,350.7 -42.8,350.4 -44.5,336.2 -47.4,336.6 -47.7,334.2 -38.5,333.1 -27.6,346.8 
		-29.1,334.3 -31.9,334.7 -32.2,332.3 -22.6,331.1 -22.3,333.5 -25,333.8 -22.9,350.4 -29,351.1 -40.2,337 -38.7,349.9 -35.9,349.5 
		-35.7,351.9 	"/>
	<polygon class="st4" points="-6.2,344.1 -7.7,342.2 -5.4,340.5 -14,329.1 -16.2,330.8 -17.7,328.9 -9.4,322.7 -8,324.6 
		-10.2,326.3 -6.4,331.3 -4.4,321.9 -6.2,323.3 -7.7,321.4 -0.1,315.6 1.4,317.5 -0.1,318.7 -2.3,328.3 8.9,329.8 10.4,328.6 
		11.8,330.5 3.9,336.5 2.5,334.6 4.4,333.1 -6.1,331.7 -1.6,337.6 0.6,336 2.1,337.9 	"/>
	<path class="st7" d="M-130.8,275.4c0-48.4,39.2-87.6,87.6-87.6c48.4,0,87.6,39.2,87.6,87.6c0,48.4-39.2,87.6-87.6,87.6
		C-91.6,362.9-130.8,323.7-130.8,275.4z"/>
</g>
</svg>
